<svg width="96" height="96" xmlns="http://www.w3.org/2000/svg" xmlns:xlink="http://www.w3.org/1999/xlink" xml:space="preserve" overflow="hidden"><g transform="translate(-778 -351)"><path d="M864 422 861 425 792 425 788 421 788 401 792 397 861 397 864 400 864 422ZM782 391 782 431 870 431 870 391 782 391Z" fill="#845EC2"/><path d="M834 411C834 416.523 830.418 421 826 421 821.582 421 818 416.523 818 411 818 405.477 821.582 401 826 401 830.418 401 834 405.477 834 411Z" fill="#845EC2"/><path d="M804 411C804 412.657 802.657 414 801 414 799.343 414 798 412.657 798 411 798 409.343 799.343 408 801 408 802.657 408 804 409.343 804 411Z" fill="#845EC2"/><path d="M854 411C854 412.657 852.657 414 851 414 849.343 414 848 412.657 848 411 848 409.343 849.343 408 851 408 852.657 408 854 409.343 854 411Z" fill="#845EC2"/><path d="M843.9 371.7 845.4 375.5 851.4 374.3 847.2 363.8 793.4 385.8 824.2 379.7Z" fill="#845EC2"/><path d="M838.7 387 854.5 383.9 855.2 387 861.3 387 859.3 376.8 808 387Z" fill="#845EC2"/></g></svg>