<svg width="96" height="96" xmlns="http://www.w3.org/2000/svg" xmlns:xlink="http://www.w3.org/1999/xlink" xml:space="preserve" overflow="hidden"><g transform="translate(-592 -312)"><path d="M670.547 334.841C659.941 333.996 650.05 329.156 642.875 321.3 641.522 319.732 639.155 319.558 637.587 320.911 637.448 321.031 637.318 321.161 637.198 321.3 630.023 329.156 620.132 333.996 609.526 334.841 607.555 335.026 606.053 336.688 606.068 338.667L606.068 348.32C606.068 369.306 619.415 388.503 637.947 400.382 639.22 401.2 640.853 401.2 642.126 400.382 660.658 388.5 674.005 369.306 674.005 348.32L674.005 338.667C674.02 336.688 672.518 335.026 670.547 334.841ZM667.505 348.32C667.505 365.02 657.556 381.867 640.891 393.396L640.037 393.987 639.184 393.396C622.518 381.866 612.567 365.015 612.567 348.32L612.567 341.069 613.831 340.869C623.248 339.38 632.013 335.135 639.02 328.669L640.036 327.733 641.053 328.669C648.06 335.135 656.824 339.38 666.241 340.869L667.505 341.069Z" fill="#845EC2"/><path d="M640.036 331.788C633.093 337.86 624.639 341.945 615.567 343.612L615.567 348.32C615.567 363.747 624.694 379.383 640.037 390.33 655.378 379.385 664.505 363.748 664.505 348.32L664.505 343.612C655.433 341.945 646.979 337.86 640.036 331.788ZM637.468 370.833 627.356 360.72 630.792 357.284 637.468 363.96 651.14 350.288 654.576 353.725Z" fill="#845EC2"/></g></svg>