<svg width="96" height="96" xmlns="http://www.w3.org/2000/svg" xmlns:xlink="http://www.w3.org/1999/xlink" xml:space="preserve" overflow="hidden"><g transform="translate(-592 -312)"><path d="M684 360C684 357.8 682.2 356 680 356 679.2 356 678.5 356.2 677.9 356.6L660.8 366.4C661 367.5 661 368.6 660.8 369.8 660 373.5 656.5 376 652.7 376L635 376 635 372 653 372C655.2 372 657 370.2 657 368 657 365.8 655.2 364 653 364 653 364 629.2 364 629 364 627.3 364 625.7 364.5 624.3 365.3L596 379 610 393C616.5 386.5 624.9 384 634 384L652.7 384C653.6 384 654.4 383.7 655.1 383.2L682.6 363.1C683.4 362.3 684 361.2 684 360Z" fill="#FFFFFF"/><path d="M670.1 327.2C670.1 327.2 657.7 325.6 651.1 332.2 646.3 337 645.8 344.7 645.9 348.7 643.8 350.2 642 352.4 640.8 355 640.5 354.6 640.3 354.2 640 353.8 640.1 350.5 639.6 344.2 635.7 340.3 630.2 334.8 620 336.2 620 336.2 620 336.2 618.7 346.4 624.1 351.9 627.6 355.4 633.2 356.1 636.6 356.2 637.6 357.3 638.3 358.9 638.8 360.3 638.9 360.6 639 361.3 639 362.2L643.1 362.2C643.2 360.1 643.5 358.9 644.3 357.2 645.3 354.8 647 352.8 649 351.6 653.1 351.7 660.5 351 665.1 346.4 671.7 339.6 670.1 327.2 670.1 327.2Z" fill="#FFFFFF"/></g></svg>