<svg width="96" height="96" xmlns="http://www.w3.org/2000/svg" xmlns:xlink="http://www.w3.org/1999/xlink" xml:space="preserve" overflow="hidden"><g transform="translate(-781 -365)"><path d="M828.979 375C808.004 375 791 392.004 791 412.979 791 433.954 808.004 450.958 828.979 450.958 849.954 450.958 866.958 433.954 866.958 412.979 866.958 412.978 866.958 412.977 866.958 412.976 866.965 392.01 849.974 375.007 829.008 375 828.998 375 828.989 375 828.979 375ZM838.179 414.793C832.646 420.316 827.079 425.889 821.479 431.51 816.72 426.729 811.95 421.959 807.169 417.2L811.95 412.419 821.479 421.948C826.105 417.255 830.705 412.596 835.279 407.969 839.85 403.343 842.379 400.86 847.12 396.278 847.253 396.145 847.396 396.013 847.551 395.878 847.701 395.751 847.836 395.606 847.951 395.446L852.799 400.227C847.168 405.827 843.712 409.267 838.178 414.79Z" fill="#845EC2"/></g></svg>