<svg width="106" height="106" xmlns="http://www.w3.org/2000/svg" xmlns:xlink="http://www.w3.org/1999/xlink" xml:space="preserve" overflow="hidden"><g transform="translate(-935 -86)"><path d="M988.005 113.604C973.98 113.604 962.61 124.974 962.61 139 962.61 153.026 973.98 164.396 988.005 164.396 1002.03 164.396 1013.4 153.026 1013.4 139 1013.39 124.981 1002.02 113.62 988.005 113.604ZM984.395 149.339 973.328 138.271 977.089 134.51 984.395 141.817 999.359 126.854 1003.12 130.615Z" fill="#845EC2"/><path d="M1025.68 140.397C1025.02 139.584 1025.02 138.416 1025.68 137.603L1028.4 134.27C1029.17 133.325 1029.03 131.934 1028.09 131.162 1028.02 131.11 1027.96 131.061 1027.89 131.016L1024.27 128.686C1023.39 128.118 1023.02 127.008 1023.4 126.03L1024.96 122.018C1025.4 120.881 1024.84 119.601 1023.7 119.16 1023.63 119.13 1023.55 119.104 1023.47 119.083L1019.31 117.985C1018.29 117.718 1017.6 116.774 1017.66 115.726L1017.91 111.429C1017.97 110.211 1017.04 109.169 1015.82 109.1 1015.74 109.096 1015.66 109.096 1015.58 109.1L1011.28 109.342C1010.23 109.401 1009.29 108.715 1009.02 107.7L1007.92 103.539C1007.61 102.359 1006.4 101.656 1005.22 101.967 1005.14 101.988 1005.06 102.014 1004.99 102.044L1000.98 103.602C999.997 103.981 998.887 103.62 998.32 102.738L995.99 99.1197C995.329 98.0943 993.963 97.7982 992.938 98.4585 992.867 98.5036 992.8 98.5525 992.736 98.6052L989.402 101.326C988.589 101.99 987.422 101.99 986.609 101.326L983.275 98.6052C982.331 97.8335 980.94 97.9736 980.168 98.918 980.115 98.9825 980.066 99.0498 980.021 99.1197L977.692 102.738C977.124 103.62 976.014 103.981 975.036 103.602L971.023 102.044C969.887 101.602 968.607 102.166 968.165 103.302 968.135 103.38 968.11 103.458 968.089 103.539L966.991 107.7C966.724 108.715 965.779 109.401 964.732 109.342L960.434 109.1C959.217 109.032 958.174 109.964 958.106 111.181 958.101 111.264 958.101 111.346 958.106 111.429L958.348 115.726C958.406 116.774 957.72 117.718 956.706 117.985L952.544 119.083C951.365 119.394 950.661 120.602 950.972 121.782 950.993 121.862 951.019 121.941 951.049 122.018L952.607 126.03C952.986 127.008 952.625 128.118 951.744 128.686L948.125 131.016C947.1 131.676 946.803 133.042 947.463 134.068 947.508 134.138 947.557 134.205 947.61 134.27L950.331 137.603C950.995 138.416 950.995 139.584 950.331 140.397L947.61 143.73C946.838 144.675 946.979 146.066 947.923 146.837 947.988 146.89 948.055 146.939 948.125 146.984L951.744 149.314C952.625 149.882 952.986 150.992 952.607 151.97L951.049 155.982C950.607 157.119 951.171 158.399 952.308 158.84 952.385 158.87 952.464 158.896 952.544 158.917L956.706 160.014C957.72 160.282 958.406 161.226 958.348 162.274L958.106 166.571C958.037 167.789 958.969 168.831 960.187 168.9 960.269 168.904 960.352 168.904 960.434 168.9L964.732 168.658C965.779 168.599 966.724 169.285 966.991 170.3L968.089 174.461C968.4 175.641 969.608 176.344 970.787 176.033 970.867 176.012 970.946 175.986 971.023 175.956L975.036 174.398C976.014 174.019 977.124 174.38 977.692 175.262L980.021 178.88C980.682 179.906 982.048 180.202 983.074 179.541 983.144 179.496 983.211 179.447 983.275 179.395L986.609 176.674C987.422 176.01 988.589 176.01 989.402 176.674L992.736 179.395C993.68 180.167 995.071 180.026 995.843 179.082 995.896 179.018 995.945 178.95 995.99 178.88L998.32 175.262C998.887 174.38 999.997 174.019 1000.98 174.398L1004.99 175.956C1006.12 176.398 1007.4 175.834 1007.85 174.698 1007.88 174.62 1007.9 174.542 1007.92 174.461L1009.02 170.3C1009.29 169.285 1010.23 168.599 1011.28 168.658L1015.58 168.9C1016.79 168.968 1017.84 168.036 1017.91 166.819 1017.91 166.736 1017.91 166.654 1017.91 166.571L1017.66 162.274C1017.6 161.226 1018.29 160.282 1019.31 160.014L1023.47 158.917C1024.65 158.606 1025.35 157.398 1025.04 156.218 1025.02 156.138 1024.99 156.059 1024.96 155.982L1023.4 151.97C1023.02 150.992 1023.39 149.882 1024.27 149.314L1027.89 146.984C1028.91 146.324 1029.21 144.957 1028.55 143.932 1028.5 143.862 1028.45 143.795 1028.4 143.73ZM988.005 167.708C972.15 167.708 959.297 154.855 959.297 139 959.297 123.145 972.15 110.292 988.005 110.292 1003.86 110.292 1016.71 123.145 1016.71 139 1016.7 154.848 1003.85 167.691 988.005 167.708Z" fill="#845EC2"/></g></svg>