<svg width="96" height="96" xmlns="http://www.w3.org/2000/svg" xmlns:xlink="http://www.w3.org/1999/xlink" xml:space="preserve" overflow="hidden"><g transform="translate(-779 -358)"><path d="M824.5 378C809 378 796.5 390.5 796.5 406 796.5 410.9 797.8 415.5 800 419.5 802.1 417.3 804.4 415.1 806.9 412.7 813.2 406.8 820.6 400.8 826.8 396.4 827.2 396.1 827.6 395.9 828.1 395.9 829.2 395.9 830.1 396.8 830.1 397.9 830.1 398.6 829.8 399.1 829.3 399.5L829.3 399.5C820.4 405.9 808.6 415.8 800.6 424.8 800.6 424.8 799.5 426 799 426.6L799 426.6C794.5 431.9 791.5 436.7 791.5 440.1L797.5 440.1C797.5 437.9 801 433.1 806.3 427.4 811.2 431.6 817.5 434.1 824.5 434.1 829.5 434.1 834.3 432.8 838.4 430.4L838.4 430.4C859.8 418.5 862.5 396.6 862.5 372 862.5 372 839.2 378.4 824.5 378Z" fill="#845EC2"/></g></svg>