<svg width="106" height="106" xmlns="http://www.w3.org/2000/svg" xmlns:xlink="http://www.w3.org/1999/xlink" xml:space="preserve" overflow="hidden"><g transform="translate(-315 -79)"><path d="M368.442 131.227C368.221 131.227 368.11 131.337 368 131.448 365.35 133.435 362.921 135.533 360.602 137.742 359.608 138.625 358.835 139.508 358.062 140.392 357.179 138.735 356.737 136.969 356.737 135.202 356.627 132.331 357.731 129.681 359.719 127.583 361.706 125.485 364.356 124.381 367.227 124.271 372.748 124.381 381.36 121.952 381.36 121.952 381.36 131.558 380.367 140.06 372.306 144.698 370.76 145.692 368.994 146.133 367.117 146.133 364.577 146.133 362.148 145.25 360.271 143.483 358.283 145.692 356.958 147.569 356.958 148.452L354.75 148.452C354.75 147.127 355.854 145.25 357.51 143.152 357.731 142.931 358.062 142.49 358.062 142.49L369.104 132C369.104 131.779 368.994 131.558 368.883 131.448 368.773 131.337 368.663 131.227 368.442 131.227ZM395.163 166.008 391.408 161.26C392.513 158.279 394.5 150.329 394.5 132.994 394.5 123.387 393.948 113.781 392.844 104.285L343.156 104.285C342.052 113.781 341.5 123.387 341.5 132.994 341.5 149.777 343.598 158.058 344.702 161.26L340.837 166.008C340.285 166.671 340.175 167.665 340.727 168.438 341.169 169.21 342.052 169.652 342.935 169.431 351.106 167.223 359.608 166.119 368.11 166.119 376.612 166.119 385.004 167.223 393.175 169.431 394.058 169.542 394.942 169.21 395.383 168.438 395.715 167.665 395.715 166.671 395.163 166.008L395.163 166.008Z" fill="#845EC2"/><path d="M391.408 96.7771C391.298 96.1146 390.856 95.5625 390.194 95.3417 389.531 95.1208 388.979 95.0104 388.317 95.3417L385.667 96.5563 382.244 94.7896C381.581 94.4583 380.919 94.4583 380.256 94.7896L376.833 96.5563 373.41 94.7896C372.748 94.4583 372.085 94.4583 371.423 94.7896L368 96.5563 364.577 94.7896C363.915 94.4583 363.252 94.4583 362.59 94.7896L359.167 96.5563 355.744 94.7896C355.081 94.4583 354.419 94.4583 353.756 94.7896L350.333 96.5563 347.683 95.3417C347.131 95.1208 346.358 95.1208 345.806 95.3417 345.254 95.6729 344.812 96.1146 344.592 96.7771 344.371 97.7708 344.04 99.2063 343.708 100.863L392.292 100.863C391.96 99.2063 391.629 97.8812 391.408 96.7771Z" fill="#845EC2"/></g></svg>