<svg width="90" height="91" xmlns="http://www.w3.org/2000/svg" xmlns:xlink="http://www.w3.org/1999/xlink" xml:space="preserve" overflow="hidden"><g transform="translate(-676 -61)"><path d="M34.6875 56.4375C36.2812 53.8125 35.4375 50.3438 32.8125 48.75 30.2812 47.25 27 47.9062 25.3125 50.3438 21.8438 46.9688 16.3125 46.9688 12.8438 50.4375 12.375 50.9062 11.9062 51.5625 11.5312 52.125 8.34375 52.3125 5.71875 54.9375 5.625 58.125L5.625 60 5.625 87.1875 84.375 87.1875 84.375 60 84.375 58.125C84.1875 53.8125 80.4375 50.4375 76.125 50.625 75.375 50.625 74.625 50.8125 73.9688 51 67.5938 45.9375 58.3125 46.9688 53.25 53.3438L52.875 54C53.1562 54.2812 53.4375 54.4688 53.7188 54.75 58.5 59.5312 58.5 67.2188 53.7188 72L53.7188 72 49.9688 75.75C45.2812 80.5312 37.5938 80.625 32.7188 75.9375 27.9375 71.25 27.8438 63.5625 32.5312 58.6875 32.625 58.5938 32.625 58.5938 32.7188 58.5L33.1875 58.0312 34.6875 56.4375Z" fill="#845EC2" transform="matrix(1 0 0 1.01111 676 61)"/><path d="M42.2812 41.9062C43.2188 43.0312 43.875 44.3438 44.3438 45.75 44.4375 46.3125 44.5312 46.9688 44.5312 47.5312L44.5312 55.0312C42.4688 55.125 40.5 55.9688 39 57.4688L35.25 61.2188C31.9687 64.5 31.9687 69.8438 35.25 73.125 38.5312 76.4062 43.875 76.4062 47.1562 73.125L50.9062 69.375C54.1875 66.0938 54.1875 60.75 50.9062 57.4688L50.9062 57.4688C50.8125 57.375 50.8125 57.375 50.7188 57.2812L44.1562 63.8438 48.4688 54.5625 48.375 47.4375C48.4688 45.75 48.8438 44.1562 49.5 42.6562 50.3438 40.4062 51.9375 38.5312 54 37.3125 57.9375 37.4062 64.9688 36.75 69.375 32.3438 75.75 25.9688 74.1562 14.1562 74.1562 14.1562 74.1562 14.1562 62.25 12.5625 55.9688 18.9375 51.375 23.5312 50.9062 30.8438 51 34.6875 48.8438 36.2812 47.25 38.3438 46.125 40.6875 45.8438 40.3125 45.5625 39.9375 45.2812 39.5625 45.375 36.375 44.9062 30.375 41.25 26.625 36 21.375 26.25 22.6875 26.25 22.6875 26.25 22.6875 24.9375 32.4375 30.1875 37.6875 33.75 41.1562 39 41.8125 42.2812 41.9062Z" fill="#845EC2" transform="matrix(1 0 0 1.01111 676 61)"/></g></svg>