<svg width="96" height="96" xmlns="http://www.w3.org/2000/svg" xmlns:xlink="http://www.w3.org/1999/xlink" xml:space="preserve" overflow="hidden"><g transform="translate(-592 -312)"><path d="M665.3 325.994 668 325.994 668 320 612.03 320 612.03 326 614.63 326C615.73 337.093 622.13 353.285 631.421 359.981 622.126 366.681 615.63 382.868 614.63 393.962L612.03 393.962 612.03 399.962 668 399.962 668 393.962 665.3 393.962C664.3 382.868 657.8 366.677 648.509 359.981 657.805 353.279 664.3 337.087 665.3 325.994ZM659.27 325.994C658.718 330.457 657.585 334.83 655.9 339L624.1 339C622.415 334.828 621.262 330.46 620.669 326ZM634.926 364.843C635.318 364.561 635.673 364.233 635.986 363.865L638.03 366.481 638.03 384 628.077 393.953 620.657 393.953C621.718 384 627.607 370.116 634.926 364.843ZM659.271 393.953 651.983 393.953 642.03 384 642.03 366.41 643.987 363.91C644.289 364.258 644.629 364.57 645.002 364.84 652.322 370.116 658.211 384 659.271 393.953Z" fill="#FFFFFF"/></g></svg>